<svg width="0" height="0" class="hidden">
  <symbol fill="#999999" xmlns="http://www.w3.org/2000/svg" viewBox="0 0 30 30" id="ok">
    <path d="M12.8527 9.99062C12.8527 11.2273 13.8552 12.2299 15.0919 12.2299C16.3286 12.2299 17.3311 11.2273 17.3311 9.99062C17.3311 8.75396 16.3286 7.7514 15.0919 7.7514C13.8552 7.7514 12.8527 8.75396 12.8527 9.99062Z" fill="#999999"></path>
    <path fill-rule="evenodd" clip-rule="evenodd" d="M15 30C23.2843 30 30 23.2843 30 15C30 6.71573 23.2843 0 15 0C6.71572 0 0 6.71573 0 15C0 23.2843 6.71572 30 15 30ZM9.67501 9.99055C9.67501 6.99892 12.1002 4.57364 15.0919 4.57364C18.0836 4.57364 20.5088 6.99892 20.5088 9.99055C20.5088 12.9822 18.0836 15.4077 15.0919 15.4077C12.1002 15.4077 9.67501 12.9822 9.67501 9.99055ZM20.5412 18.194C20.4724 18.2491 19.1729 19.2761 17.0043 19.7179L20.2777 22.9622C20.8534 23.5369 20.854 24.4695 20.2793 25.0451C19.7046 25.6207 18.7722 25.6216 18.1964 25.0467L15.0184 21.952L12.1319 25.0268C11.8429 25.3266 11.4575 25.4774 11.0716 25.4774C10.7035 25.4774 10.3351 25.3404 10.0493 25.0648C9.46372 24.5001 9.44677 23.5677 10.0114 22.9822L13.1185 19.735C10.8891 19.3036 9.53591 18.2499 9.46622 18.194C8.83165 17.6851 8.72971 16.7581 9.23862 16.1235C9.74746 15.4889 10.6744 15.387 11.3091 15.8958C11.3225 15.9067 12.7378 16.9699 15.0183 16.9715C17.2989 16.9699 18.6849 15.9067 18.6983 15.8958C19.333 15.387 20.2599 15.4889 20.7688 16.1235C21.2777 16.7581 21.1757 17.6851 20.5412 18.194Z" fill="#999999"></path>
  </symbol>
  <symbol  fill="currentColor" xmlns="http://www.w3.org/2000/svg" viewBox="0 0 20 20" id="search">
    <path d="M17.8187 16.0625L14.607 13.3156C15.5516 12.0945 16.0625 10.6016 16.0625 9.03125C16.0625 7.15156 15.3289 5.38906 14.0023 4.06016C12.6758 2.73125 10.9086 2 9.03125 2C7.15391 2 5.38672 2.73359 4.06016 4.06016C2.73125 5.38672 2 7.15156 2 9.03125C2 10.9086 2.73359 12.6758 4.06016 14.0023C5.38672 15.3312 7.15156 16.0625 9.03125 16.0625C10.6016 16.0625 12.0922 15.5516 13.3133 14.6094L16.5249 17.3539C16.5428 17.3718 16.564 17.3859 16.5873 17.3956C16.6106 17.4053 16.6356 17.4102 16.6609 17.4102C16.6861 17.4102 16.7111 17.4053 16.7344 17.3956C16.7578 17.3859 16.7789 17.3718 16.7968 17.3539L17.8187 16.3344C17.8365 16.3165 17.8507 16.2953 17.8604 16.272C17.87 16.2487 17.875 16.2237 17.875 16.1984C17.875 16.1732 17.87 16.1482 17.8604 16.1249C17.8507 16.1015 17.8365 16.0803 17.8187 16.0625ZM12.7438 12.7438C11.75 13.7352 10.4328 14.2812 9.03125 14.2812C7.62969 14.2812 6.3125 13.7352 5.31875 12.7438C4.32734 11.75 3.78125 10.4328 3.78125 9.03125C3.78125 7.62969 4.32734 6.31016 5.31875 5.31875C6.3125 4.32734 7.62969 3.78125 9.03125 3.78125C10.4328 3.78125 11.7523 4.325 12.7438 5.31875C13.7352 6.3125 14.2812 7.62969 14.2812 9.03125C14.2812 10.4328 13.7352 11.7523 12.7438 12.7438Z" fill="currentColor"></path>
  </symbol>
  <symbol fill="none" xmlns="http://www.w3.org/2000/svg" viewBox="0 0 16 15" id="star">
    <path d="M15.2764 5.28193L10.5439 4.59758L8.42832 0.330127C8.37054 0.213287 8.27548 0.118702 8.15805 0.0612089C7.86355 -0.0834504 7.50567 0.037099 7.35842 0.330127L5.24285 4.59758L0.510317 5.28193C0.379841 5.30047 0.260549 5.36167 0.169216 5.45441C0.0587999 5.56733 -0.00204457 5.71924 5.24622e-05 5.87678C0.00214949 6.03431 0.0670165 6.18457 0.1804 6.29454L3.60445 9.61614L2.7955 14.3064C2.77653 14.4156 2.78867 14.5278 2.83053 14.6304C2.87239 14.733 2.94231 14.8218 3.03235 14.8869C3.12239 14.952 3.22896 14.9906 3.33996 14.9985C3.45096 15.0064 3.56196 14.9831 3.66037 14.9314L7.89337 12.717L12.1264 14.9314C12.2419 14.9926 12.3761 15.013 12.5048 14.9908C12.8291 14.9352 13.0472 14.6291 12.9912 14.3064L12.1823 9.61614L15.6063 6.29454C15.6995 6.20367 15.7611 6.08497 15.7797 5.95515C15.83 5.63059 15.6026 5.33015 15.2764 5.28193Z" fill="#FF862F"></path>
  </symbol>
  <symbol fill="currentColor" xmlns="http://www.w3.org/2000/svg" viewBox="0 0 26 28" id="user">
    <path d="M24.98 22.8503C24.3278 21.2785 23.3813 19.8508 22.1933 18.6467C21.0089 17.4392 19.6059 16.4764 18.0617 15.8116C18.0478 15.8045 18.034 15.801 18.0202 15.794C20.1742 14.2111 21.5744 11.6327 21.5744 8.72362C21.5744 3.90452 17.7367 0 13 0C8.26333 0 4.42559 3.90452 4.42559 8.72362C4.42559 11.6327 5.82585 14.2111 7.97982 15.7975C7.96599 15.8045 7.95216 15.808 7.93833 15.8151C6.38941 16.4799 4.99952 17.4332 3.80671 18.6503C2.61981 19.8553 1.67349 21.2827 1.02003 22.8538C0.37806 24.3918 0.0318323 26.0409 8.64563e-05 27.7116C-0.000836348 27.7491 0.00563604 27.7864 0.0191224 27.8214C0.0326088 27.8564 0.0528363 27.8882 0.0786128 27.9151C0.104389 27.942 0.135194 27.9633 0.16921 27.9779C0.203227 27.9925 0.239768 28 0.27668 28H2.35113C2.50326 28 2.62427 27.8769 2.62773 27.7256C2.69688 25.01 3.76868 22.4668 5.66335 20.5392C7.62371 18.5447 10.2271 17.4472 13 17.4472C15.7729 17.4472 18.3763 18.5447 20.3367 20.5392C22.2313 22.4668 23.3031 25.01 23.3723 27.7256C23.3757 27.8804 23.4967 28 23.6489 28H25.7233C25.7602 28 25.7968 27.9925 25.8308 27.9779C25.8648 27.9633 25.8956 27.942 25.9214 27.9151C25.9472 27.8882 25.9674 27.8564 25.9809 27.8214C25.9944 27.7864 26.0008 27.7491 25.9999 27.7116C25.9653 26.0301 25.6231 24.3945 24.98 22.8503ZM13 14.7739C11.413 14.7739 9.91943 14.1442 8.79577 13.001C7.67211 11.8578 7.05323 10.3382 7.05323 8.72362C7.05323 7.10905 7.67211 5.58945 8.79577 4.44623C9.91943 3.30301 11.413 2.67337 13 2.67337C14.587 2.67337 16.0806 3.30301 17.2042 4.44623C18.3279 5.58945 18.9468 7.10905 18.9468 8.72362C18.9468 10.3382 18.3279 11.8578 17.2042 13.001C16.0806 14.1442 14.587 14.7739 13 14.7739Z" fill="#A65CF0"></path>
  </symbol>
  <symbol fill="currentColor" xmlns="http://www.w3.org/2000/svg" viewBox="0 0 30 30" id="vk">
    <path d="M15 0C6.71601 0 0 6.7157 0 15C0 23.2843 6.71601 30 15 30C23.284 30 30 23.2843 30 15C30 6.7157 23.284 0 15 0ZM22.6088 16.6223C23.3079 17.3052 24.0476 17.9478 24.6752 18.7013C24.9532 19.0346 25.2153 19.3792 25.4148 19.7669C25.6996 20.3196 25.4425 20.9257 24.9477 20.9586L21.8747 20.958C21.081 21.0236 20.4494 20.7035 19.9169 20.1609C19.4919 19.7285 19.0975 19.2666 18.6881 18.8194C18.5208 18.6359 18.3447 18.4631 18.1347 18.3272C17.7158 18.0546 17.3518 18.1381 17.1118 18.5758C16.8672 19.0211 16.8114 19.5146 16.788 20.0102C16.7546 20.7348 16.5361 20.9242 15.809 20.9583C14.2554 21.031 12.7814 20.7953 11.4114 20.0121C10.2028 19.3212 9.26731 18.3462 8.45217 17.2423C6.86486 15.0902 5.64921 12.7283 4.55693 10.2985C4.3111 9.7513 4.49095 9.45852 5.09463 9.44716C6.0976 9.42783 7.10056 9.43028 8.10353 9.44624C8.51171 9.45268 8.78179 9.68624 8.93862 10.0714C9.48061 11.4049 10.1451 12.6737 10.9777 13.8503C11.1996 14.1637 11.4261 14.4761 11.7486 14.6974C12.1047 14.9417 12.376 14.861 12.5438 14.4635C12.6513 14.2109 12.6976 13.9409 12.7209 13.6702C12.8007 12.743 12.8102 11.8162 12.6721 10.8927C12.5862 10.3148 12.2612 9.94158 11.6851 9.83233C11.3917 9.77678 11.4347 9.66813 11.5774 9.50056C11.8251 9.21084 12.0571 9.03161 12.5208 9.03161L15.9928 9.031C16.5401 9.13841 16.6628 9.38394 16.7371 9.93514L16.7402 13.7936C16.7337 14.0069 16.8473 14.6391 17.2303 14.7787C17.5372 14.88 17.7397 14.6339 17.9233 14.4396C18.7559 13.556 19.3492 12.5131 19.8804 11.4338C20.1149 10.9577 20.3171 10.4652 20.5136 9.97166C20.6596 9.60675 20.8868 9.42721 21.2986 9.43335L24.642 9.43734C24.7406 9.43734 24.8406 9.43826 24.9382 9.45514C25.5017 9.55151 25.6561 9.79396 25.4817 10.3436C25.2074 11.2073 24.6743 11.9266 24.1531 12.6479C23.5946 13.4201 22.9989 14.1652 22.4458 14.9408C21.9376 15.6497 21.9778 16.0066 22.6088 16.6223Z" fill="#999999"></path>
  </symbol>
  <symbol fill="currentColor" xmlns="http://www.w3.org/2000/svg" viewBox="0 0 22 22" id="call">
    <path d="M18.3425 14.0983C17.215 14.0983 16.1242 13.915 15.1067 13.585C14.7858 13.475 14.4283 13.5575 14.1808 13.805L12.7417 15.6108C10.1475 14.3733 7.71833 12.0358 6.42583 9.35L8.21333 7.82833C8.46083 7.57167 8.53417 7.21417 8.43333 6.89333C8.09417 5.87583 7.92 4.785 7.92 3.6575C7.92 3.1625 7.5075 2.75 7.0125 2.75H3.84083C3.34583 2.75 2.75 2.97 2.75 3.6575C2.75 12.1733 9.83583 19.25 18.3425 19.25C18.9933 19.25 19.25 18.6725 19.25 18.1683V15.0058C19.25 14.5108 18.8375 14.0983 18.3425 14.0983Z" fill="currentColor"></path>
  </symbol>
  <symbol xmlns="http://www.w3.org/2000/svg" viewBox="0 0 32 32" id="arrow">
    <g clip-path="url(#clip0_27094_925)">
      <path d="M14 11L19 16L14 21" stroke="currentColor" stroke-width="2" stroke-linecap="round" stroke-linejoin="round"></path>
      <circle cx="16" cy="16" r="15" stroke="currentColor" stroke-width="2"></circle>
    </g>
  </symbol>
  <symbol fill="currentColor" xmlns="http://www.w3.org/2000/svg" viewBox="0 0 41 28" id="cart">
    <g clip-path="url(#clip0_1_262)">
      <path d="M39.8162 19.8503H19.902L20.9019 17.7365L37.5154 17.7052C38.0772 17.7052 38.5588 17.2887 38.6591 16.7125L40.9599 3.34598C41.0201 2.99541 40.9298 2.63444 40.7091 2.36023C40.6 2.22528 40.4639 2.11658 40.3103 2.04166C40.1567 1.96674 39.9892 1.9274 39.8195 1.92637L18.6848 1.85348L18.5042 0.971861C18.3905 0.40957 17.9022 0 17.3471 0H12.1805C11.8674 0 11.5671 0.129087 11.3458 0.358864C11.1244 0.588641 11 0.900285 11 1.22524C11 1.55019 11.1244 1.86184 11.3458 2.09161C11.5671 2.32139 11.8674 2.45048 12.1805 2.45048H16.3907L17.1799 6.34486L19.1228 16.1086L16.6214 20.3466C16.4915 20.5286 16.4133 20.7446 16.3956 20.9704C16.3778 21.1961 16.4213 21.4225 16.5211 21.6239C16.7218 22.0369 17.1264 22.2973 17.5745 22.2973H19.6746C19.2269 22.9145 18.9851 23.6662 18.9857 24.4388C18.9857 26.4034 20.524 28 22.4168 28C24.3096 28 25.8478 26.4034 25.8478 24.4388C25.8478 23.6648 25.6004 22.9116 25.159 22.2973H30.5463C30.0986 22.9145 29.8568 23.6662 29.8574 24.4388C29.8574 26.4034 31.3957 28 33.2885 28C35.1812 28 36.7195 26.4034 36.7195 24.4388C36.7195 23.6648 36.4721 22.9116 36.0307 22.2973H39.8195C40.4683 22.2973 41 21.7489 41 21.072C40.9981 20.7474 40.8725 20.4368 40.6507 20.2079C40.4289 19.979 40.1289 19.8504 39.8162 19.8503ZM19.1763 4.26925L38.4317 4.33519L36.5456 15.2964L21.4202 15.3242L19.1763 4.26925ZM22.4168 25.5356C21.8349 25.5356 21.36 25.0428 21.36 24.4388C21.36 23.8349 21.8349 23.342 22.4168 23.342C22.9987 23.342 23.4735 23.8349 23.4735 24.4388C23.4735 24.7297 23.3622 25.0087 23.164 25.2144C22.9658 25.4201 22.6971 25.5356 22.4168 25.5356ZM33.2885 25.5356C32.7066 25.5356 32.2317 25.0428 32.2317 24.4388C32.2317 23.8349 32.7066 23.342 33.2885 23.342C33.8704 23.342 34.3452 23.8349 34.3452 24.4388C34.3452 24.7297 34.2339 25.0087 34.0357 25.2144C33.8375 25.4201 33.5687 25.5356 33.2885 25.5356Z" fill="currentColor"></path>
      <ellipse cx="7" cy="12.5" rx="7" ry="7.5" fill="#FF862F"></ellipse>
      <path d="M9.49023 12.4307C9.49023 13.0068 9.44466 13.5212 9.35352 13.9736C9.26562 14.4261 9.1224 14.8102 8.92383 15.126C8.72852 15.4417 8.47135 15.6826 8.15234 15.8486C7.83333 16.0146 7.44596 16.0977 6.99023 16.0977C6.41732 16.0977 5.94694 15.9528 5.5791 15.6631C5.21126 15.3701 4.93945 14.9502 4.76367 14.4033C4.58789 13.8532 4.5 13.1956 4.5 12.4307C4.5 11.6592 4.57975 11 4.73926 10.4531C4.90202 9.90299 5.16569 9.48145 5.53027 9.18848C5.89486 8.89551 6.38151 8.74902 6.99023 8.74902C7.5599 8.74902 8.02865 8.89551 8.39648 9.18848C8.76758 9.47819 9.04264 9.89811 9.22168 10.4482C9.40072 10.9951 9.49023 11.6559 9.49023 12.4307ZM5.99902 12.4307C5.99902 12.9743 6.02832 13.4284 6.08691 13.793C6.14876 14.1543 6.2513 14.4261 6.39453 14.6084C6.53776 14.7907 6.73633 14.8818 6.99023 14.8818C7.24089 14.8818 7.43783 14.7923 7.58105 14.6133C7.72754 14.431 7.83171 14.1592 7.89355 13.7979C7.9554 13.4333 7.98633 12.9775 7.98633 12.4307C7.98633 11.887 7.9554 11.4329 7.89355 11.0684C7.83171 10.7038 7.72754 10.4303 7.58105 10.248C7.43783 10.0625 7.24089 9.96973 6.99023 9.96973C6.73633 9.96973 6.53776 10.0625 6.39453 10.248C6.2513 10.4303 6.14876 10.7038 6.08691 11.0684C6.02832 11.4329 5.99902 11.887 5.99902 12.4307Z" fill="white"></path>
    </g>
    <defs>
      <clipPath id="clip0_1_262">
        <rect width="41" height="28" fill="white"></rect>
      </clipPath>
    </defs>
  </symbol>
  <symbol fill="none" xmlns="http://www.w3.org/2000/svg" viewBox="0 0 15 12" id="cheked">
    <path d="M1 6.00014L5.52769 10.5278L13.6473 1.4082" stroke="white" stroke-width="2"></path>
  </symbol>
  <symbol fill="none" xmlns="http://www.w3.org/2000/svg" viewBox="0 0 12 12" id="cross">
    <path fill-rule="evenodd" clip-rule="evenodd" d="M1.42872 0.238643L6.75487 5.42386C7.08171 5.74206 7.08171 6.25794 6.75487 6.57614L1.42872 11.7614C1.10188 12.0795 0.571969 12.0795 0.245129 11.7614C-0.0817098 11.4432 -0.0817098 10.9273 0.24513 10.6091L4.97949 6L0.24513 1.39091C-0.0817089 1.07272 -0.0817089 0.556834 0.24513 0.238643C0.57197 -0.0795478 1.10188 -0.0795477 1.42872 0.238643Z" fill="#999999"></path>
    <path fill-rule="evenodd" clip-rule="evenodd" d="M10.5713 0.238643L5.24513 5.42386C4.91829 5.74206 4.91829 6.25794 5.24513 6.57614L10.5713 11.7614C10.8981 12.0795 11.428 12.0795 11.7549 11.7614C12.0817 11.4432 12.0817 10.9273 11.7549 10.6091L7.02051 6L11.7549 1.39091C12.0817 1.07272 12.0817 0.556834 11.7549 0.238643C11.428 -0.0795478 10.8981 -0.0795477 10.5713 0.238643Z" fill="#999999"></path>
  </symbol>
</svg>

<svg class="icon">
  <use xlink:href="#ok"></use>
</svg>
<svg class="icon">
  <use xlink:href="#search"></use>
</svg>
<svg class="icon">
  <use xlink:href="#star"></use>
</svg>
<svg class="icon">
  <use xlink:href="#user"></use>
</svg>
<svg class="icon">
  <use xlink:href="#vk"></use>
</svg>
<svg class="icon">
  <use xlink:href="#call"></use>
</svg>
<svg class="icon">
  <use xlink:href="#arrow"></use>
</svg>
<svg class="icon">
  <use xlink:href="#cart"></use>
</svg>
<svg class="icon">
  <use xlink:href="#cheked"></use>
</svg>
<svg class="icon">
  <use xlink:href="#cross"></use>
</svg>
